<svg width="512" height="512" viewBox="0 0 512 512" fill="none" xmlns="http://www.w3.org/2000/svg">
<rect width="512" height="512" rx="32" fill="#1D1D1F"/>
<path d="M191.25 306.125H123.375L110.625 344H70.375L136.125 159.75H179.625L244.875 344H203.125L191.25 306.125ZM180.5 274.375L157.5 201.875L133.75 274.375H180.5ZM381.375 339.5C371.208 345.75 358.708 348.875 343.875 348.875C319.458 348.875 299.458 340.417 283.875 323.5C267.625 306.5 259.5 283.25 259.5 253.75C259.5 223.917 267.708 200 284.125 182C300.542 164 322.25 155 349.25 155C372.667 155 391.458 160.958 405.625 172.875C419.875 184.708 428.042 199.5 430.125 217.25H392.25C389.333 204.667 382.208 195.875 370.875 190.875C364.542 188.125 357.5 186.75 349.75 186.75C334.917 186.75 322.708 192.375 313.125 203.625C303.625 214.792 298.875 231.625 298.875 254.125C298.875 276.792 304.042 292.833 314.375 302.25C324.708 311.667 336.458 316.375 349.625 316.375C362.542 316.375 373.125 312.667 381.375 305.25C389.625 297.75 394.708 287.958 396.625 275.875H354V245.125H430.75V344H405.25L401.375 321C393.958 329.75 387.292 335.917 381.375 339.5Z" fill="#FBFBFD"/>
</svg>
